<svg viewBox="0 0 680 320" xmlns="http://www.w3.org/2000/svg" role="img" aria-labelledby="sk-t sk-d" font-family="Inter, system-ui, sans-serif">
<title id="sk-t">Skeleton: Slider Section — Testimonials</title>
<desc id="sk-d">Low-fidelity wireframe: a testimonial on a dark band — a 1:1 portrait on the left, the person's name and title plus the company logo on the right, and a short quote beneath. Slider dots at the bottom; one testimonial is static, several become a slider.</desc>
<style>
  .ph{fill:#ded8d8}
  .lb{fill:#716571;font-size:11px}
</style>
<rect x="10" y="10" width="660" height="300" rx="12" fill="#2b1a2e"/>
<rect x="44" y="66" width="150" height="150" rx="10" fill="#ede8e8" stroke="#c1babe"/><text x="119" y="145" text-anchor="middle" fill="#716571" font-size="11">1:1 portrait</text>
<rect x="230" y="80" width="200" height="12" rx="4" fill="#ffffff"/><rect x="230" y="100" width="150" height="9" rx="4" fill="#ffffff" opacity="0.65"/>
<rect x="540" y="78" width="110" height="26" rx="4" fill="none" stroke="#ffffff" stroke-opacity="0.5"/><text x="595" y="95" text-anchor="middle" fill="#ffffff" opacity="0.8" font-size="10">logo</text>
<line x1="230" y1="124" x2="650" y2="124" stroke="#ffffff" stroke-opacity="0.2"/>
<rect x="230" y="146" width="410" height="11" rx="4" fill="#ffffff" opacity="0.92"/><rect x="230" y="164" width="420" height="11" rx="4" fill="#ffffff" opacity="0.92"/><rect x="230" y="182" width="300" height="11" rx="4" fill="#ffffff" opacity="0.92"/>
<rect x="300" y="252" width="16" height="6" rx="3" fill="#ffffff" opacity="0.85"/><circle cx="328" cy="255" r="3" fill="#ffffff" opacity="0.35"/><circle cx="346" cy="255" r="3" fill="#ffffff" opacity="0.35"/><circle cx="364" cy="255" r="3" fill="#ffffff" opacity="0.35"/><circle cx="382" cy="255" r="3" fill="#ffffff" opacity="0.35"/><circle cx="400" cy="255" r="3" fill="#ffffff" opacity="0.35"/><circle cx="418" cy="255" r="3" fill="#ffffff" opacity="0.35"/>
<text x="44" y="296" fill="#ffffff" opacity="0.6" font-size="11">portrait 1:1 + mono-vector logo + name/title · quote ≤200 chars (one benefit) · 1 = static, several = slider</text>
</svg>
