<svg viewBox="0 0 680 380" xmlns="http://www.w3.org/2000/svg" role="img" aria-labelledby="sk-t sk-d" font-family="Inter, system-ui, sans-serif">
<title id="sk-t">Skeleton: Grid Section — Logos (Integrations)</title>
<desc id="sk-d">Low-fidelity wireframe: eyebrow + heading top-left, then integration logos grouped under labels (common accounting systems, ERP) — each logo links to its subpage — and a "not listed?" side card on the right with API/OAuth/JSON chips and a CTA.</desc>
<style>
  .ph{fill:#ded8d8}
  .lb{fill:#716571;font-size:11px}
  .fr{fill:#ede8e8;stroke:#c1babe;stroke-width:1}
  .kard{fill:#f6f1fd;stroke:#ded8d8;stroke-width:1}
</style>
<rect x="24" y="28" width="130" height="12" rx="6" class="ph"/><text x="162" y="39" class="lb">eyebrow · max 32</text>
<rect x="24" y="52" width="260" height="18" rx="4" class="ph"/><rect x="24" y="76" width="200" height="18" rx="4" class="ph"/><text x="294" y="67" class="lb">heading</text>
<text x="24" y="122" class="lb">Common systems (DATEV &amp; adjacent)</text><line x1="24" y1="130" x2="430" y2="130" stroke="#ded8d8" stroke-width="1"/>
<rect x="24" y="142" width="92" height="60" rx="8" class="fr"/><rect x="46" y="164" width="48" height="16" rx="4" class="ph"/>
<rect x="126" y="142" width="92" height="60" rx="8" class="fr"/><rect x="148" y="164" width="48" height="16" rx="4" class="ph"/>
<rect x="228" y="142" width="92" height="60" rx="8" class="fr"/><rect x="250" y="164" width="48" height="16" rx="4" class="ph"/>
<rect x="330" y="142" width="92" height="60" rx="8" class="fr"/><rect x="352" y="164" width="48" height="16" rx="4" class="ph"/>
<text x="24" y="240" class="lb">ERP</text><line x1="24" y1="248" x2="430" y2="248" stroke="#ded8d8" stroke-width="1"/>
<rect x="24" y="260" width="92" height="60" rx="8" class="fr"/><rect x="46" y="282" width="48" height="16" rx="4" class="ph"/>
<rect x="126" y="260" width="92" height="60" rx="8" class="fr"/><rect x="148" y="282" width="48" height="16" rx="4" class="ph"/>
<rect x="228" y="260" width="92" height="60" rx="8" class="fr"/><rect x="250" y="282" width="48" height="16" rx="4" class="ph"/>
<text x="24" y="352" class="lb">each logo = image + link to its integration subpage · grouped</text>
<rect x="452" y="120" width="204" height="232" rx="12" class="kard"/>
<text x="474" y="138" class="lb">“not listed?” side card</text>
<rect x="474" y="150" width="150" height="13" rx="5" class="ph"/><rect x="474" y="170" width="110" height="13" rx="5" class="ph"/>
<rect x="474" y="198" width="160" height="7" rx="3" class="ph"/><rect x="474" y="210" width="160" height="7" rx="3" class="ph"/><rect x="474" y="222" width="120" height="7" rx="3" class="ph"/>
<rect x="474" y="244" width="62" height="18" rx="9" class="ph"/><text x="505" y="257" text-anchor="middle" class="lb">REST API</text>
<rect x="542" y="244" width="50" height="18" rx="9" class="ph"/><text x="567" y="257" text-anchor="middle" class="lb">OAuth</text>
<rect x="598" y="244" width="42" height="18" rx="9" class="ph"/><text x="619" y="257" text-anchor="middle" class="lb">JSON</text>
<rect x="474" y="302" width="150" height="13" rx="6" class="ph"/><text x="474" y="334" class="lb">CTA → Schnittstelle</text>
</svg>
