<svg viewBox="0 0 680 510" xmlns="http://www.w3.org/2000/svg" role="img" aria-labelledby="sk-t sk-d" font-family="Inter, system-ui, sans-serif">
<title id="sk-t">Skeleton: Grid Section — CTA Bento</title>
<desc id="sk-d">Low-fidelity wireframe: a big CTA section. Section header, then numbered step cards on the left (a CTA button on the first), a large heading image with caption and platform ratings on the right, and up to three short testimonials along the bottom.</desc>
<style>
  .ph{fill:#ded8d8}
  .lb{fill:#716571;font-size:11px}
  .fr{fill:#ede8e8;stroke:#c1babe;stroke-width:1}
</style>
<rect x="20" y="26" width="140" height="12" rx="6" class="ph"/><text x="168" y="36" class="lb">eyebrow · max 32</text>
<rect x="20" y="50" width="320" height="20" rx="4" class="ph"/><text x="350" y="65" class="lb">heading</text>
<rect x="20" y="82" width="320" height="7" rx="4" class="ph"/><rect x="20" y="93" width="280" height="7" rx="4" class="ph"/><text x="350" y="92" class="lb">paragraph</text>
<rect x="20" y="120" width="300" height="132" rx="10" fill="none" stroke="#ded8d8"/><rect x="36" y="136" width="26" height="26" rx="7" fill="#2b1a2e"/><text x="49" y="154" text-anchor="middle" fill="#ffffff" font-size="13" font-weight="600">1</text><rect x="74" y="142" width="120" height="13" rx="3" class="ph"/><rect x="36" y="172" width="50" height="16" rx="8" class="ph"/><rect x="94" y="172" width="64" height="16" rx="8" class="ph"/><rect x="166" y="172" width="44" height="16" rx="8" class="ph"/><text x="220" y="184" class="lb">chips</text><rect x="36" y="200" width="240" height="6" rx="3" class="ph"/><rect x="36" y="210" width="200" height="6" rx="3" class="ph"/><rect x="36" y="224" width="96" height="20" rx="6" fill="#2b1a2e"/><text x="84" y="238" text-anchor="middle" fill="#ffffff" font-size="11">CTA</text>
<rect x="20" y="264" width="300" height="72" rx="10" fill="none" stroke="#ded8d8"/><rect x="36" y="280" width="26" height="26" rx="7" fill="#ded8d8"/><text x="49" y="298" text-anchor="middle" fill="#716571" font-size="13" font-weight="600">2</text><rect x="74" y="286" width="120" height="13" rx="3" class="ph"/><rect x="36" y="312" width="240" height="6" rx="3" class="ph"/><rect x="36" y="322" width="190" height="6" rx="3" class="ph"/>
<rect x="20" y="348" width="300" height="72" rx="10" fill="none" stroke="#ded8d8"/><rect x="36" y="364" width="26" height="26" rx="7" fill="#ded8d8"/><text x="49" y="382" text-anchor="middle" fill="#716571" font-size="13" font-weight="600">3</text><rect x="74" y="370" width="120" height="13" rx="3" class="ph"/><rect x="36" y="396" width="240" height="6" rx="3" class="ph"/><rect x="36" y="406" width="190" height="6" rx="3" class="ph"/>
<rect x="340" y="120" width="320" height="240" rx="10" class="fr"/><text x="500" y="232" text-anchor="middle" class="lb">image</text><rect x="356" y="330" width="40" height="4" rx="2" fill="#895fd5"/><rect x="356" y="342" width="230" height="8" rx="3" class="ph"/>
<text x="340" y="382" class="lb">platform ratings</text><rect x="340" y="390" width="20" height="20" rx="4" class="fr"/><rect x="366" y="396" width="48" height="8" rx="3" class="ph"/><rect x="448" y="390" width="20" height="20" rx="4" class="fr"/><rect x="474" y="396" width="48" height="8" rx="3" class="ph"/><rect x="556" y="390" width="20" height="20" rx="4" class="fr"/><rect x="582" y="396" width="48" height="8" rx="3" class="ph"/>
<text x="20" y="446" class="lb">testimonials — up to 3 (quote + avatar + name/role)</text>
<rect x="20" y="456" width="200" height="6" rx="3" class="ph"/><rect x="20" y="466" width="180" height="6" rx="3" class="ph"/><circle cx="32" cy="494" r="12" fill="#ede8e8" stroke="#c1babe"/><rect x="52" y="488" width="90" height="8" rx="3" class="ph"/><rect x="52" y="500" width="120" height="6" rx="3" class="ph"/>
<rect x="250" y="456" width="200" height="6" rx="3" class="ph"/><rect x="250" y="466" width="180" height="6" rx="3" class="ph"/><circle cx="262" cy="494" r="12" fill="#ede8e8" stroke="#c1babe"/><rect x="282" y="488" width="90" height="8" rx="3" class="ph"/><rect x="282" y="500" width="120" height="6" rx="3" class="ph"/>
<rect x="480" y="456" width="180" height="6" rx="3" class="ph"/><rect x="480" y="466" width="160" height="6" rx="3" class="ph"/><circle cx="492" cy="494" r="12" fill="#ede8e8" stroke="#c1babe"/><rect x="512" y="488" width="90" height="8" rx="3" class="ph"/><rect x="512" y="500" width="120" height="6" rx="3" class="ph"/>
</svg>
