<svg viewBox="0 0 680 470" xmlns="http://www.w3.org/2000/svg" role="img" aria-labelledby="sk-t sk-d" font-family="Inter, system-ui, sans-serif">
<title id="sk-t">Skeleton: Hero Section — Centered Video</title>
<desc id="sk-d">Low-fidelity wireframe: a fully centered hero — eyebrow, heading, trust chips, paragraph and two buttons centered above a large centered video (16:9). The video is the main piece; on scroll it grows and the background inverts. Use sparingly.</desc>
<style>
  .ph{fill:#ded8d8}
  .lb{fill:#716571;font-size:11px}
  .fr{fill:#ede8e8;stroke:#c1babe;stroke-width:1}
</style>
<rect x="245" y="24" width="190" height="11" rx="5" class="ph"/><text x="445" y="33" class="lb">eyebrow ≤42</text>
<rect x="170" y="44" width="340" height="18" rx="4" class="ph"/><rect x="215" y="66" width="250" height="18" rx="4" class="ph"/><text x="520" y="58" class="lb">heading</text>
<rect x="180" y="92" width="100" height="22" rx="11" fill="#ffffff" stroke="#ded8d8"/><circle cx="196" cy="103" r="4" class="ph"/><rect x="206" y="99" width="62" height="8" rx="3" class="ph"/>
<rect x="290" y="92" width="100" height="22" rx="11" fill="#ffffff" stroke="#ded8d8"/><circle cx="306" cy="103" r="4" class="ph"/><rect x="316" y="99" width="62" height="8" rx="3" class="ph"/>
<rect x="400" y="92" width="100" height="22" rx="11" fill="#ffffff" stroke="#ded8d8"/><circle cx="416" cy="103" r="4" class="ph"/><rect x="426" y="99" width="62" height="8" rx="3" class="ph"/><text x="510" y="107" class="lb">trust chips</text>
<rect x="150" y="130" width="380" height="7" rx="3" class="ph"/><rect x="170" y="142" width="340" height="7" rx="3" class="ph"/><rect x="205" y="154" width="270" height="7" rx="3" class="ph"/><text x="540" y="146" class="lb">paragraph</text>
<rect x="225" y="178" width="110" height="30" rx="6" fill="#2b1a2e"/><text x="280" y="197" text-anchor="middle" fill="#ffffff" font-size="11">primary</text>
<rect x="345" y="178" width="110" height="30" rx="6" fill="none" stroke="#ded8d8"/><text x="400" y="197" text-anchor="middle" class="lb">secondary</text>
<text x="340" y="226" text-anchor="middle" class="lb">choose your preferred date</text>
<rect x="180" y="242" width="320" height="180" rx="10" class="fr"/><circle cx="340" cy="332" r="26" fill="#895fd5"/><polygon points="331,319 331,345 353,332" fill="#ffffff"/><rect x="444" y="398" width="44" height="16" rx="4" fill="#2b1a2e"/><text x="466" y="410" text-anchor="middle" fill="#ffffff" font-size="9">5 min</text>
<text x="340" y="440" text-anchor="middle" class="lb">centered video (16:9) — the main piece</text>
<text x="340" y="458" text-anchor="middle" class="lb">grows on scroll · background inverts · use sparingly (it competes with the homepage)</text>
</svg>
