<svg viewBox="0 0 680 250" xmlns="http://www.w3.org/2000/svg" role="img" aria-labelledby="sk-t sk-d" font-family="Inter, system-ui, sans-serif">
<title id="sk-t">Skeleton: Grid Section — YouTube Videos</title>
<desc id="sk-d">Low-fidelity wireframe: a heading, then a row of YouTube video cards — each a custom thumbnail with a play button and a duration badge, with the title beneath — and an "all videos on YouTube" link. Each card links out to a video or a playlist.</desc>
<style>
  .ph{fill:#ded8d8}
  .lb{fill:#716571;font-size:11px}
  .fr{fill:#ede8e8;stroke:#c1babe;stroke-width:1}
</style>
<rect x="20" y="24" width="280" height="18" rx="4" class="ph"/><text x="310" y="39" class="lb">heading</text>
<rect x="20" y="64" width="200" height="112" rx="8" class="fr"/><circle cx="120" cy="120" r="20" fill="#895fd5"/><polygon points="113,110 113,130 131,120" fill="#ffffff"/><rect x="168" y="156" width="44" height="16" rx="4" fill="#2b1a2e"/><text x="190" y="168" text-anchor="middle" fill="#ffffff" font-size="9">03 min</text><rect x="20" y="188" width="190" height="9" rx="3" class="ph"/><rect x="20" y="200" width="150" height="9" rx="3" class="ph"/>
<rect x="240" y="64" width="200" height="112" rx="8" class="fr"/><circle cx="340" cy="120" r="20" fill="#895fd5"/><polygon points="333,110 333,130 351,120" fill="#ffffff"/><rect x="388" y="156" width="44" height="16" rx="4" fill="#2b1a2e"/><text x="410" y="168" text-anchor="middle" fill="#ffffff" font-size="9">1:54</text><rect x="240" y="188" width="190" height="9" rx="3" class="ph"/><rect x="240" y="200" width="150" height="9" rx="3" class="ph"/>
<rect x="460" y="64" width="200" height="112" rx="8" class="fr"/><circle cx="560" cy="120" r="20" fill="#895fd5"/><polygon points="553,110 553,130 571,120" fill="#ffffff"/><rect x="608" y="156" width="44" height="16" rx="4" fill="#2b1a2e"/><text x="630" y="168" text-anchor="middle" fill="#ffffff" font-size="9">3 min</text><rect x="460" y="188" width="190" height="9" rx="3" class="ph"/><rect x="460" y="200" width="150" height="9" rx="3" class="ph"/>
<text x="20" y="236" class="lb">video cards — custom 16:9 thumbnail · play · duration · each links out to YouTube (video or playlist)</text>
<text x="660" y="236" text-anchor="end" class="lb">Alle Videos auf YouTube ↗</text>
</svg>
