<svg viewBox="0 0 680 250" xmlns="http://www.w3.org/2000/svg" role="img" aria-labelledby="sk-t sk-d" font-family="Inter, system-ui, sans-serif">
<title id="sk-t">Skeleton: Grid Section — Bento S</title>
<desc id="sk-d">Low-fidelity wireframe: small cards in rows of 4. You pick ONE top visual for ALL cards — a colored line, an icon, or an image. Each card also has a heading, a short paragraph and an optional text link.</desc>
<style>
  .ph{fill:#ded8d8}
  .lb{fill:#716571;font-size:11px}
  .fr{fill:#ede8e8;stroke:#c1babe;stroke-width:1}
</style>
<text x="20" y="16" class="lb">pick ONE top visual for ALL cards — colored line, OR icon, OR image:</text>
<rect x="20" y="28" width="36" height="5" rx="2" fill="#895fd5"/><text x="62" y="34" class="lb">colored line</text>
<rect x="150" y="24" width="16" height="14" rx="3" class="fr"/><text x="172" y="34" class="lb">icon</text>
<rect x="222" y="24" width="24" height="14" rx="3" class="fr"/><text x="252" y="34" class="lb">image</text>
<rect x="20" y="52" width="140" height="158" rx="10" fill="none" stroke="#ded8d8"/><rect x="34" y="70" width="112" height="5" rx="2" fill="#895fd5"/><rect x="34" y="92" width="104" height="11" rx="3" class="ph"/><rect x="34" y="108" width="72" height="11" rx="3" class="ph"/><rect x="34" y="132" width="112" height="6" rx="3" class="ph"/><rect x="34" y="142" width="88" height="6" rx="3" class="ph"/><rect x="34" y="180" width="60" height="10" rx="3" class="ph"/><text x="100" y="189" class="lb">link</text>
<rect x="188" y="52" width="140" height="158" rx="10" fill="none" stroke="#ded8d8"/><rect x="202" y="70" width="112" height="5" rx="2" fill="#895fd5"/><rect x="202" y="92" width="104" height="11" rx="3" class="ph"/><rect x="202" y="108" width="72" height="11" rx="3" class="ph"/><rect x="202" y="132" width="112" height="6" rx="3" class="ph"/><rect x="202" y="142" width="88" height="6" rx="3" class="ph"/><rect x="202" y="180" width="60" height="10" rx="3" class="ph"/>
<rect x="356" y="52" width="140" height="158" rx="10" fill="none" stroke="#ded8d8"/><rect x="370" y="70" width="112" height="5" rx="2" fill="#895fd5"/><rect x="370" y="92" width="104" height="11" rx="3" class="ph"/><rect x="370" y="108" width="72" height="11" rx="3" class="ph"/><rect x="370" y="132" width="112" height="6" rx="3" class="ph"/><rect x="370" y="142" width="88" height="6" rx="3" class="ph"/><rect x="370" y="180" width="60" height="10" rx="3" class="ph"/>
<rect x="524" y="52" width="140" height="158" rx="10" fill="none" stroke="#ded8d8"/><rect x="538" y="70" width="112" height="5" rx="2" fill="#895fd5"/><rect x="538" y="92" width="104" height="11" rx="3" class="ph"/><rect x="538" y="108" width="72" height="11" rx="3" class="ph"/><rect x="538" y="132" width="112" height="6" rx="3" class="ph"/><rect x="538" y="142" width="88" height="6" rx="3" class="ph"/><rect x="538" y="180" width="60" height="10" rx="3" class="ph"/>
<text x="20" y="232" class="lb">all cards share the SAME treatment (here: colored line)</text>
<text x="20" y="247" class="lb">4 / 8 / 12 cards · rows of 4 · heading ≤65 · paragraph ≤130 · optional text link</text>
</svg>
