<svg viewBox="0 0 680 380" xmlns="http://www.w3.org/2000/svg" role="img" aria-labelledby="sk-t sk-d" font-family="Inter, system-ui, sans-serif">
<title id="sk-t">Skeleton: Before / After Slider — desktop</title>
<desc id="sk-d">Low-fidelity wireframe: centered section eyebrow, heading and paragraph, then a container with an internal before/after headline, a row of four Bento M cards, and a draggable vertical slider handle spanning the full height of the container.</desc>
<style>
  .card { fill: #ffffff; stroke: #c1babe; stroke-width: 1; }
  .ph { fill: #ded8d8; }
  .lb { fill: #716571; font-size: 11px; }
  .tag { fill: #ede8e8; stroke: #c1babe; stroke-width: 1; }
  .hl { stroke: #716571; stroke-width: 2; }
  .hc { fill: #ede8e8; stroke: #716571; stroke-width: 2; }
</style>
<rect x="290" y="18" width="100" height="12" rx="6" class="ph"/>
<text x="402" y="28" class="lb">eyebrow</text>
<rect x="250" y="36" width="180" height="18" rx="4" class="ph"/>
<text x="440" y="50" class="lb">heading</text>
<rect x="255" y="62" width="170" height="7" rx="3" class="ph"/>
<rect x="285" y="73" width="110" height="7" rx="3" class="ph"/>
<text x="440" y="72" class="lb">paragraph</text>
<rect x="40" y="94" width="600" height="270" rx="12" class="card"/>
<rect x="250" y="110" width="180" height="14" rx="4" class="ph"/>
<text x="438" y="121" class="lb">before / after headline</text>
<rect x="56" y="144" width="133" height="120" rx="6" class="ph"/>
<rect x="56" y="276" width="105" height="12" rx="4" class="ph"/>
<rect x="56" y="294" width="120" height="7" rx="3" class="ph"/>
<rect x="56" y="306" width="92" height="7" rx="3" class="ph"/>
<rect x="201" y="144" width="133" height="120" rx="6" class="ph"/>
<rect x="201" y="276" width="105" height="12" rx="4" class="ph"/>
<rect x="201" y="294" width="120" height="7" rx="3" class="ph"/>
<rect x="201" y="306" width="92" height="7" rx="3" class="ph"/>
<rect x="346" y="144" width="133" height="120" rx="6" class="ph"/>
<rect x="346" y="276" width="105" height="12" rx="4" class="ph"/>
<rect x="346" y="294" width="120" height="7" rx="3" class="ph"/>
<rect x="346" y="306" width="92" height="7" rx="3" class="ph"/>
<rect x="491" y="144" width="133" height="120" rx="6" class="ph"/>
<rect x="491" y="276" width="105" height="12" rx="4" class="ph"/>
<rect x="491" y="294" width="120" height="7" rx="3" class="ph"/>
<rect x="491" y="306" width="92" height="7" rx="3" class="ph"/>
<line x1="170" y1="94" x2="170" y2="364" class="hl"/>
<circle cx="170" cy="229" r="15" class="hc"/>
<text x="170" y="233" text-anchor="middle" class="lb">‹ ›</text>
<rect x="62" y="236" width="48" height="16" rx="3" class="tag"/>
<text x="86" y="248" text-anchor="middle" class="lb">Vorher</text>
</svg>
