<svg viewBox="0 0 680 360" xmlns="http://www.w3.org/2000/svg" role="img" aria-labelledby="sk-t sk-d" font-family="Inter, system-ui, sans-serif">
<title id="sk-t">Skeleton: 1-Column Section with Decision-Overview Table</title>
<desc id="sk-d">Low-fidelity wireframe: centered eyebrow, heading and paragraph, a row of selectable category pills, then a comparison table with a first label column and two columns of free text per cell.</desc>
<style>
  .ph { fill: #ded8d8; }
  .lb { fill: #716571; font-size: 11px; }
  .tbl { fill: none; stroke: #c1babe; stroke-width: 1; }
  .sep { stroke: #c1babe; stroke-width: 1; }
</style>
<rect x="40" y="20" width="120" height="14" rx="7" class="ph"/>
<text x="170" y="31" class="lb">eyebrow</text>
<rect x="40" y="44" width="300" height="18" rx="4" class="ph"/>
<text x="350" y="58" class="lb">heading</text>
<rect x="40" y="74" width="280" height="8" rx="4" class="ph"/>
<text x="330" y="86" class="lb">paragraph</text>
<rect x="40" y="100" width="84" height="20" rx="10" fill="#c1babe"/>
<rect x="132" y="100" width="72" height="20" rx="10" class="ph"/>
<rect x="212" y="100" width="72" height="20" rx="10" class="ph"/>
<text x="294" y="114" class="lb">selectable categories</text>
<rect x="40" y="140" width="600" height="200" rx="8" class="tbl"/>
<line x1="300" y1="140" x2="300" y2="340" class="sep"/>
<line x1="470" y1="140" x2="470" y2="340" class="sep"/>
<line x1="40" y1="178" x2="640" y2="178" class="sep"/>
<line x1="40" y1="232" x2="640" y2="232" class="sep"/>
<line x1="40" y1="286" x2="640" y2="286" class="sep"/>
<rect x="56" y="154" width="150" height="10" rx="3" class="ph"/>
<text x="385" y="165" text-anchor="middle" class="lb">Candis</text>
<text x="555" y="165" text-anchor="middle" class="lb">Competitor</text>
<rect x="56" y="196" width="190" height="8" rx="3" class="ph"/>
<rect x="56" y="210" width="150" height="8" rx="3" class="ph"/>
<rect x="316" y="196" width="130" height="8" rx="3" class="ph"/>
<rect x="316" y="210" width="96" height="8" rx="3" class="ph"/>
<rect x="486" y="196" width="130" height="8" rx="3" class="ph"/>
<rect x="486" y="210" width="96" height="8" rx="3" class="ph"/>
<rect x="56" y="250" width="190" height="8" rx="3" class="ph"/>
<rect x="56" y="264" width="150" height="8" rx="3" class="ph"/>
<rect x="316" y="250" width="130" height="8" rx="3" class="ph"/>
<rect x="316" y="264" width="96" height="8" rx="3" class="ph"/>
<rect x="486" y="250" width="130" height="8" rx="3" class="ph"/>
<rect x="486" y="264" width="96" height="8" rx="3" class="ph"/>
<rect x="56" y="304" width="190" height="8" rx="3" class="ph"/>
<rect x="56" y="318" width="150" height="8" rx="3" class="ph"/>
<rect x="316" y="304" width="130" height="8" rx="3" class="ph"/>
<rect x="316" y="318" width="96" height="8" rx="3" class="ph"/>
<rect x="486" y="304" width="130" height="8" rx="3" class="ph"/>
<rect x="486" y="318" width="96" height="8" rx="3" class="ph"/>
</svg>
