<svg viewBox="0 0 680 322" xmlns="http://www.w3.org/2000/svg" role="img" aria-labelledby="sk-t sk-d" font-family="Inter, system-ui, sans-serif">
<title id="sk-t">Skeleton: LLM Section — Cal AI Assistant</title>
<desc id="sk-d">Low-fidelity wireframe: a dark left panel with Cal's illustration, the "Meet Cal / Candis KI Assistent" heading and an online status; and a right chat panel with Cal's greeting bubble, suggested-prompt chips (the top one connects to a human / sales) and a question input.</desc>
<style>
  .ph{fill:#ded8d8}
  .lb{fill:#716571;font-size:11px}
</style>
<rect x="20" y="20" width="300" height="282" rx="14" fill="#2f2550"/>
<rect x="44" y="48" width="150" height="15" rx="4" fill="#ffffff"/><rect x="44" y="69" width="205" height="15" rx="4" fill="#ffffff"/>
<circle cx="48" cy="100" r="4" fill="#6fcf97"/><text x="60" y="104" fill="#ffffff" opacity="0.6" font-size="11">online</text>
<rect x="90" y="150" width="160" height="118" rx="12" fill="#ffffff" fill-opacity="0.1" stroke="#ffffff" stroke-opacity="0.3"/><text x="170" y="213" text-anchor="middle" fill="#ffffff" opacity="0.5" font-size="11">Cal image</text>
<rect x="336" y="20" width="324" height="282" rx="14" fill="#ffffff" stroke="#ded8d8"/>
<circle cx="362" cy="54" r="13" fill="#ede8e8" stroke="#c1babe"/>
<rect x="386" y="40" width="256" height="46" rx="10" fill="#f6f1fd"/><rect x="398" y="50" width="228" height="6" rx="3" class="ph"/><rect x="398" y="61" width="212" height="6" rx="3" class="ph"/><rect x="398" y="72" width="150" height="6" rx="3" class="ph"/>
<rect x="386" y="102" width="252" height="28" rx="8" fill="#895fd5"/><text x="512" y="120" text-anchor="middle" fill="#ffffff" font-size="11">Verbinde mich mit einem Menschen</text>
<rect x="386" y="140" width="214" height="26" rx="8" fill="#f6f1fd"/><text x="398" y="157" fill="#6b3fa0" font-size="10">Wie lange dauert die Implementierung?</text>
<rect x="386" y="174" width="128" height="26" rx="8" fill="#f6f1fd"/><text x="398" y="191" fill="#6b3fa0" font-size="10">Passt Candis zu uns?</text>
<rect x="386" y="208" width="238" height="26" rx="8" fill="#f6f1fd"/><text x="398" y="225" fill="#6b3fa0" font-size="10">Wie unterscheidet sich Candis…?</text>
<rect x="386" y="256" width="226" height="34" rx="8" fill="none" stroke="#ded8d8"/><text x="400" y="278" class="lb">Stell mir eine Frage zu Candis…</text><rect x="620" y="256" width="34" height="34" rx="8" fill="#895fd5"/><text x="637" y="279" text-anchor="middle" fill="#ffffff" font-size="14">→</text>
<text x="20" y="318" class="lb">left: Cal + heading (online) · right: greeting + suggested prompts (top = connect to a human) + a question input</text>
</svg>
