<svg viewBox="0 0 680 236" xmlns="http://www.w3.org/2000/svg" role="img" aria-labelledby="sk-t sk-d" font-family="Inter, system-ui, sans-serif">
<title id="sk-t">Skeleton: Grid Section — Bento S</title>
<desc id="sk-d">Low-fidelity wireframe: small cards in rows of 4. Each card has a heading, a short paragraph and an optional text link, and one optional visual on top — a colored line, an icon, or an image.</desc>
<style>
  .ph{fill:#ded8d8}
  .lb{fill:#716571;font-size:11px}
  .fr{fill:#ede8e8;stroke:#c1babe;stroke-width:1}
</style>
<rect x="20" y="20" width="140" height="168" rx="10" fill="none" stroke="#ded8d8"/><rect x="34" y="40" width="112" height="5" rx="2" fill="#895fd5"/><text x="34" y="62" class="lb">colored line</text><rect x="34" y="74" width="104" height="11" rx="3" class="ph"/><rect x="34" y="90" width="72" height="11" rx="3" class="ph"/><rect x="34" y="114" width="112" height="6" rx="3" class="ph"/><rect x="34" y="124" width="88" height="6" rx="3" class="ph"/><rect x="34" y="162" width="60" height="10" rx="3" class="ph"/><text x="100" y="171" class="lb">link</text>
<rect x="188" y="20" width="140" height="168" rx="10" fill="none" stroke="#ded8d8"/><rect x="202" y="36" width="40" height="40" rx="9" class="fr"/><rect x="212" y="46" width="20" height="20" rx="4" class="ph"/><text x="248" y="60" class="lb">icon</text><rect x="202" y="90" width="104" height="11" rx="3" class="ph"/><rect x="202" y="106" width="72" height="11" rx="3" class="ph"/><rect x="202" y="130" width="112" height="6" rx="3" class="ph"/><rect x="202" y="140" width="88" height="6" rx="3" class="ph"/><rect x="202" y="162" width="60" height="10" rx="3" class="ph"/>
<rect x="356" y="20" width="140" height="168" rx="10" fill="none" stroke="#ded8d8"/><rect x="370" y="36" width="112" height="46" rx="6" class="fr"/><text x="426" y="63" text-anchor="middle" class="lb">image</text><rect x="370" y="96" width="104" height="11" rx="3" class="ph"/><rect x="370" y="112" width="72" height="11" rx="3" class="ph"/><rect x="370" y="134" width="112" height="6" rx="3" class="ph"/><rect x="370" y="144" width="88" height="6" rx="3" class="ph"/><rect x="370" y="162" width="60" height="10" rx="3" class="ph"/>
<rect x="524" y="20" width="140" height="168" rx="10" fill="none" stroke="#ded8d8"/><rect x="538" y="36" width="40" height="40" rx="9" class="fr"/><rect x="548" y="46" width="20" height="20" rx="4" class="ph"/><rect x="538" y="90" width="104" height="11" rx="3" class="ph"/><rect x="538" y="106" width="72" height="11" rx="3" class="ph"/><rect x="538" y="130" width="112" height="6" rx="3" class="ph"/><rect x="538" y="140" width="88" height="6" rx="3" class="ph"/><rect x="538" y="162" width="60" height="10" rx="3" class="ph"/>
<text x="20" y="210" class="lb">top of each card (optional, choose one): colored line · icon · image</text>
<text x="20" y="227" class="lb">4 / 8 / 12 cards · rows of 4 · heading ≤65 · paragraph ≤130 · optional text link</text>
</svg>
